<svg width="63" height="37" viewBox="0 0 63 37" fill="none" xmlns="http://www.w3.org/2000/svg">
<g clip-path="url(#clip0_66_21)">
<path d="M29.7334 14.3072V6.407L23.3304 0.000488281H6.50261V6.02973C6.50261 6.29311 6.28906 6.50666 6.02568 6.50666H0V30.537H6.02568C6.28906 30.537 6.50261 30.7506 6.50261 31.014V37.0005H23.2806L29.7334 30.5406V22.644L25.5786 18.4892L25.5679 18.475L28.7902 15.2492L29.7322 14.306L29.7334 14.3072ZM23.2343 30.4979H6.50261V21.7554H23.2343V30.4979ZM23.2343 15.2492H6.50261V6.50666H23.2343V15.2492Z" fill="#595656"/>
<path d="M42.6425 6.50608V15.2486H56.2967V21.7548H42.6425V36.9999H36.1399V22.6695L40.3088 18.5005L36.1399 14.3386V6.50608H42.1703C42.4325 6.50608 42.6448 6.29372 42.6448 6.03153V0.00109863H62.5917V6.50727H42.6413L42.6425 6.50608Z" fill="#595656"/>
</g>
<defs>
<clipPath id="clip0_66_21">
<rect width="62.5917" height="37" fill="white" transform="translate(0 0.000488281)"/>
</clipPath>
</defs>
</svg>
