<svg width="113" height="37" viewBox="0 0 113 37" fill="none" xmlns="http://www.w3.org/2000/svg">
<path d="M43.3932 32.277C39.1885 29.5684 33.4821 29.0931 24.2794 31.6463C14.4686 33.9518 11.1975 35.4297 6.90165 32.4629C5.25129 31.0055 4.65959 28.6589 5.10142 25.2788C6.12619 19.7686 8.89554 14.466 13.8147 8.58401C16.5603 5.52425 19.1074 2.89841 22.4704 1.84398C25.0479 1.18251 24.8069 3.20817 24.4951 3.49788C24.166 3.49788 23.6131 3.54972 23.1858 3.82855C22.839 4.09749 21.8872 4.96589 21.836 6.13403C21.7623 7.92226 23.6128 7.55006 24.411 6.56823C25.2714 5.46182 26.5429 3.34307 25.5427 1.36839C25.1235 0.665531 24.3992 0.179772 23.4998 0.014368C20.4203 -0.16163 17.5523 1.30638 14.9053 2.92935C9.1166 6.9506 4.48599 12.5226 1.86581 18.6218C0.355276 22.3018 -1.01089 27.5733 1.03681 31.8637C2.62107 34.8407 5.9098 36.422 9.83358 36.0913C12.5856 35.8022 15.9133 34.9128 18.1514 34.3757C20.3896 33.8377 31.8461 29.8996 35.6105 36.7538C35.6105 36.7538 36.8622 34.3239 39.9905 34.272C42.5624 34.0347 46.2727 35.0166 48.9746 37.001C48.0744 35.6473 45.5223 33.6521 43.3932 32.277Z" fill="#595656"/>
<path d="M25.4475 9.27652C23.3048 7.87066 18.998 10.5584 15.5486 15.1686C12.3942 19.304 11.0321 24.1103 12.5145 26.3329C14.7194 28.9481 18.813 25.1441 20.5538 23.108L20.7784 22.87C21.9622 21.5985 22.8766 20.0685 23.762 18.6003C23.762 18.6003 24.5756 17.2564 24.6144 17.1943C25.1173 17.1016 25.723 16.9569 26.4055 16.7604C26.3957 16.7912 23.7942 21.164 24.0596 23.3344C24.1422 23.9966 24.0792 26.4155 26.4408 27.1493C29.5884 27.6769 32.1018 25.2369 34.3192 23.0661C34.3192 23.0661 34.697 22.7046 34.9107 22.4982C34.8566 22.7146 34.7861 23.0035 34.7861 23.0035C33.8646 26.2082 35.1068 26.8807 35.8838 27.1287C38.2321 27.8115 41.0374 24.3999 41.0466 24.3999C40.9737 25.4745 40.7612 26.3634 41.894 27.0769C42.9631 27.4596 44.0452 26.876 44.8679 26.3281C47.8306 24.2401 50.2174 20.9719 52.1452 18.147H50.9155C50.9009 18.147 47.8811 22.5241 45.9202 23.4754C45.9171 23.4754 45.5601 23.6586 45.3546 23.5137C45.0999 23.2966 45.2004 22.845 45.3576 22.5252C45.3675 22.5044 52.9291 9.38952 52.9291 9.38952H49.3589C49.3589 9.38952 48.9689 10.0205 48.9371 10.0619C48.9131 10.0412 48.8559 9.93277 48.8164 9.88079C46.6044 6.82103 41.5952 11.5275 37.824 16.9854C36.3721 19.0841 34.5235 21.4471 32.6068 23.1526C32.6068 23.1526 29.7671 25.7556 28.5539 23.8855C28.1104 23.0997 28.2468 21.9509 28.497 21.1965C29.9096 17.1751 32.3438 13.5256 35.1138 11.3237C35.8956 10.7142 36.7457 10.5379 37.1673 10.7964C37.5693 11.0345 37.6342 11.6232 37.3799 12.0265C36.7348 12.0059 36.2178 12.202 35.7978 12.6362C34.97 13.5046 34.6825 14.342 34.9456 15.1278C36.2241 16.9471 38.7738 13.3496 38.6504 11.1581C38.6064 10.3723 38.1873 9.62823 37.5616 9.26607C36.6292 8.70813 35.2068 8.85263 34.2862 9.29742C33.0538 9.76242 31.1033 11.3852 29.9647 12.6466C28.5313 14.2285 26.0728 15.9856 25.3041 15.7889C25.5554 15.1168 27.632 10.8683 25.4475 9.27652ZM42.6604 15.5616C43.3549 14.6004 45.3764 12.0262 45.8692 11.5922C47.5266 10.134 48.1891 10.7756 48.2464 11.2301C46.6996 14.0005 44.8739 17.1742 43.1575 20.0275C43.161 20.0173 42.6203 20.8441 42.6203 20.8441C41.8622 22.0015 41.0989 22.994 39.8538 23.6864C39.6762 23.7386 39.3835 23.7593 39.1888 23.614C38.9543 23.4589 38.8618 23.2004 38.8882 22.9316C38.9629 22.0428 39.8677 19.3246 42.6604 15.5616ZM23.2378 17.2258C23.2378 17.2258 23.2066 17.3192 23.1913 17.3497C23.1874 17.3497 21.6346 19.882 21.6346 19.882C20.6976 21.1331 19.5276 22.7047 18.0651 23.459C17.6316 23.6037 17.0323 23.697 16.7269 23.3148C16.0795 22.5393 16.4132 21.4641 16.6842 20.596L16.7803 20.2858C17.5574 18.1773 18.7904 16.3161 19.9907 14.5898C20.0057 14.5796 20.0393 14.5693 20.0515 14.5693C20.0544 14.5796 20.0592 14.5796 20.0612 14.6004C20.8144 16.0473 22.2266 16.719 23.2827 17.0296C23.2891 17.0296 23.296 17.0399 23.296 17.0607C23.2961 17.0915 23.2789 17.1331 23.2378 17.2258ZM24.7088 14.2386C24.7019 14.2593 24.0172 15.8305 24.0172 15.8305C23.9182 15.9132 23.7617 15.8719 23.5823 15.8305L23.275 15.7785C22.3098 15.479 21.5818 14.838 21.3573 14.0731C21.0479 12.5845 22.3195 11.4163 22.8797 10.9927C23.4173 10.6202 24.2531 10.4239 24.7384 10.8065C25.0378 11.1581 25.1512 11.6128 25.1512 12.1093C25.1513 12.7809 24.944 13.5355 24.7088 14.2386ZM69.8439 19.0348C69.4995 18.2907 68.6824 17.8151 67.8114 17.8666C64.9832 18.1253 62.2168 20.4511 60.7642 23.7898C60.002 25.506 59.586 26.922 59.3132 29.1756C60.1928 28.1628 61.9867 26.4986 64.0224 25.5888C64.0224 25.5888 64.2994 23.4284 65.7119 21.5055C66.2464 20.7093 67.3159 19.4276 68.5169 19.7686C69.5664 20.1201 69.1975 23.0251 67.8028 25.8363C66.7708 27.904 65.1916 29.9721 63.5938 31.3983C62.1812 32.5973 60.0911 34.0446 58.2625 32.9283C57.1107 32.2463 56.5233 30.8193 56.6473 28.9794C57.1976 23.7592 59.574 19.314 62.9746 14.2488C66.481 9.54532 70.3461 4.71781 75.553 2.14339C76.6151 1.60593 77.5986 1.48191 78.4488 1.81272C78.4488 1.81272 73.561 4.50043 71.2311 9.47286C70.6384 10.7342 69.814 12.4394 70.6442 13.9488C71.078 14.7343 71.848 14.7964 72.4683 14.755C75.3242 14.0933 77.1694 11.4263 78.6769 8.98696C79.551 7.13658 80.3279 5.29651 80.3279 3.24966C80.3279 3.00162 80.315 2.67096 80.2941 2.42264C81.6584 1.6993 84.4565 2.98086 84.4565 2.98086C86.6429 3.70477 91.2983 7.27133 92.8688 7.95329C93.6348 7.0644 94.8936 5.72069 95.6025 5.04862L94.5763 4.41794C92.9336 3.4152 91.1972 2.46402 89.4882 1.52344C85.6068 -0.595453 82.4473 0.148653 80.8395 0.727637C80.2075 0.954909 79.6301 1.15139 79.6301 1.15139C78.4368 -0.15108 76.4796 -0.0273447 75.0376 0.324368C69.8518 1.81286 65.037 5.44115 59.875 11.7368C56.0799 16.6679 53.7258 20.927 52.4711 25.1341C51.5039 27.9665 51.21 32.1323 53.5706 34.6031C55.5776 36.7011 58.2389 36.2465 60.1181 35.4923C64.1899 33.4868 67.8495 29.1655 69.6731 24.1931C70.1132 22.7151 70.6015 20.627 69.8439 19.0348ZM79.2069 3.45659C78.6679 9.6384 73.8627 13.2671 72.6737 13.5561C71.9531 13.7006 70.7237 13.3804 71.8214 10.7861C73.4375 7.29167 76.1971 4.32514 79.1577 2.80543C79.2299 3.06391 79.228 3.22889 79.2069 3.45659ZM107.711 4.24194C105.126 5.71009 102.447 6.66085 99.2033 6.33018C98.3045 7.34351 97.4292 8.38749 96.6225 9.4624C101.175 10.6202 106.001 8.04623 108.693 5.59653C111.54 3.12578 113 0.0144653 113 0.0144653C113 0.0144653 110.866 2.45386 107.711 4.24194ZM58.8629 9.3898H55.4724L53.5598 12.4973H56.9497L58.8629 9.3898Z" fill="#595656"/>
<path d="M99.1897 32.5647C98.8251 32.8128 98.3129 32.6221 98.5043 32.0537C98.9815 30.6064 100.878 27.6571 100.878 27.6571L106.16 18.2886H102.542C102.37 18.5711 102.002 19.2197 102.002 19.2197C101.835 18.9409 101.334 18.3209 101.128 18.1869C100.244 17.6282 98.9474 17.8924 98.0528 18.3988C94.1629 20.6733 91.3247 25.1672 89.0863 28.6717C89.0863 28.6717 86.7302 32.5674 85.4223 32.8571C84.4012 32.9399 84.5066 31.5644 84.5508 31.2439C84.9456 28.928 85.8625 26.7263 86.7861 24.7311C88.665 23.4287 90.809 21.7231 92.7576 19.8521C96.9863 15.8098 100.551 11.2303 101.072 10.207C101.072 10.207 100.508 10.3208 99.8424 10.3413C96.5891 14.8794 89.9317 21.4749 87.9134 22.4567C88.8075 20.3061 94.5844 10.0414 99.5002 5.13128L100.274 4.38675C101.47 3.21861 102.709 2.01954 103.675 1.82306C103.777 1.81275 103.909 1.82306 104.022 2.06121C104.065 2.97072 103.726 3.64279 103.338 4.40766L102.794 5.52424C102.794 5.52424 103.565 5.37946 104.071 5.21363C104.659 4.10806 105.31 2.86718 105.07 1.38928C104.99 0.913692 104.645 0.551951 104.195 0.469178C102.729 0.190068 101.131 1.27515 99.8448 2.15415L99.793 2.18494C93.1822 7.36402 87.6001 14.8277 82.7196 25.0204C82.3659 25.2888 80.9994 25.6096 80.7671 25.4543C81.2491 24.4622 81.8559 23.1284 82.1594 21.6811C82.212 21.2674 82.2609 20.8439 82.2609 20.4305C82.2609 19.5408 82.0473 18.7037 81.2504 18.1252C80.3158 17.6599 79.1608 17.8771 78.382 18.2283C74.8935 19.6755 72.2862 23.2525 70.4046 26.1983C69.3927 28.0699 68.3837 30.0744 68.1043 32.3697C67.9076 34.1681 68.3082 35.326 69.3308 35.905C70.3823 36.4422 71.7058 35.8838 72.2257 35.6153C75.76 33.7545 78.2294 30.0229 80.1759 26.6115C80.2533 26.6013 81.316 26.5705 82.12 26.3634C82.1306 26.3634 82.1351 26.3634 82.1529 26.3742C82.1069 26.5287 81.6915 27.7696 81.6915 27.7696C80.4578 31.3873 79.8873 33.8479 81.0526 35.3053C82.7178 37.3624 85.4747 35.2332 87.7174 32.4209C87.236 35.7908 88.9824 36.3183 90.3138 36.0601C91.8431 35.6468 93.5473 34.0131 94.3382 33.1761C94.0842 34.1579 94.1531 35.9156 95.5444 36.091C96.4979 36.2673 97.2116 35.7487 98.0372 35.304C100.999 33.6912 104.545 28.3171 105.465 26.7633H104.258C102.949 28.7412 101.284 31.334 99.1897 32.5647ZM72.6039 32.2048C72.416 31.9256 72.3537 31.6205 72.3475 31.2905C72.3115 29.2634 74.4924 25.6336 76.0316 23.6561H76.0348C76.6798 25.0686 78.1406 25.9766 79.0224 26.3592C77.9273 28.799 74.171 34.0241 72.6039 32.2048ZM79.6407 25.2685C79.5364 25.3414 77.6944 24.7207 77.3383 23.0151C77.0363 21.5467 78.0475 20.3993 79.0258 19.821C79.4457 19.4899 80.0783 19.3766 80.5423 19.5413C80.9729 19.8313 81.0896 20.3486 81.0896 20.9058C81.0896 21.2476 81.0443 21.5988 81.0043 21.9191L80.9955 21.9917C80.687 23.1378 80.2316 24.2392 79.6407 25.2685ZM94.415 31.5537C94.4135 31.5537 94.0654 31.8637 94.0654 31.8637C93.5685 32.3081 93.0572 32.7835 92.4399 32.5457C92.2694 32.4838 92.1495 32.2565 92.1207 32.0803C92.0926 30.8087 92.6651 29.6306 93.2205 28.4832L93.3628 28.1833C94.9601 25.5164 96.8167 22.3738 99.5434 20.1929C100.003 19.8614 100.501 19.5829 101.028 19.8001C101.149 19.9137 101.29 20.1102 101.29 20.3063C101.29 20.3686 101.234 20.5339 101.203 20.5855C100.441 21.8162 99.7158 23.108 99.0106 24.3485C97.6323 26.7985 96.2024 29.3307 94.415 31.5537Z" fill="#595656"/>
</svg>
