<svg width="149" height="125" viewBox="0 0 149 125" fill="none" xmlns="http://www.w3.org/2000/svg">
<path d="M86.056 84.7617H79.6828L66.7735 52.1717L65.3975 48.6592L63.587 44.1056L62.6002 41.607L59.7757 34.5278L56.5892 42.5666L53.4116 50.6236L35.1702 96.6933H28.7971L50.225 42.5938L53.4116 34.5278L53.5565 34.1747L55.9102 28.2451H63.6775L65.7868 33.6044L66.0222 34.1747L66.7735 36.0486L69.9511 44.1056L86.056 84.7617Z" fill="#F0E8E5"/>
<path d="M59.9839 66.3658L52.4881 85.3223L50.3426 90.7721L50.1344 91.2791L50.1072 91.3334L47.9889 96.6926H41.6248L43.7341 91.3334L43.7703 91.2791L43.9785 90.7721L46.115 85.3223L56.7973 58.3359L59.9839 66.3658Z" fill="#F0E8E5"/>
<path d="M63.1976 58.3087L63.1705 58.3359L59.9839 66.3657L56.7973 58.3359L59.9839 50.2698L60.011 50.2427L62.7812 57.2948L63.1976 58.3087Z" fill="#F0E8E5"/>
<path d="M73.8256 85.2048H67.4524L59.9839 66.3659L56.7973 58.3361L59.9839 50.27L63.1705 58.3361L73.8256 85.2048Z" fill="url(#paint0_linear_80_224)"/>
<path d="M115.64 78.0531C115.644 82.3485 114.149 86.5106 111.413 89.8217C111.193 90.1034 110.954 90.3695 110.698 90.6184C110.698 90.6184 110.698 90.6817 110.643 90.7089C108.904 92.5863 106.795 94.0825 104.448 95.1031C102.102 96.1238 99.5688 96.6466 97.0098 96.6385H47.998L50.1163 91.2792V91.2158L50.3246 90.7089H97.0189C97.446 90.7103 97.8727 90.68 98.2953 90.6184C100.223 90.4303 102.08 89.7978 103.722 88.7705C105.363 87.7432 106.744 86.3491 107.756 84.6978C109.016 82.7052 109.679 80.3929 109.666 78.035C109.666 74.6736 108.33 71.45 105.954 69.0732C103.577 66.6963 100.353 65.3611 96.9917 65.3611H84.7523L82.3986 59.4315H97.046C100.407 59.4315 103.631 58.0962 106.008 55.7194C108.385 53.3426 109.72 50.1189 109.72 46.7576C109.72 43.3962 108.385 40.1726 106.008 37.7957C103.631 35.4189 100.407 34.0836 97.046 34.0836H72.4043L72.1599 33.5133L70.0506 28.2627H97.0098C98.5655 28.2681 100.115 28.4565 101.627 28.824C105.131 29.7237 108.297 31.6253 110.738 34.2962C113.179 36.967 114.788 40.2914 115.369 43.8625C115.95 47.4336 115.478 51.0967 114.01 54.4036C112.542 57.7105 110.142 60.5179 107.104 62.4823C109.711 64.1616 111.857 66.4654 113.348 69.1846C114.838 71.9037 115.627 74.9521 115.64 78.0531Z" fill="url(#paint1_linear_80_224)"/>
<path d="M128.342 124.938H20.6585C15.1857 124.933 9.938 122.759 6.0656 118.891C2.1932 115.024 0.0119787 109.779 0 104.306V20.6585C0.00718579 15.1817 2.186 9.93133 6.05867 6.05867C9.93133 2.186 15.1817 0.00718579 20.6585 0H128.387C133.856 0.0167614 139.097 2.2001 142.96 6.07198C146.823 9.94387 148.995 15.1888 149 20.6585V104.306C148.988 109.779 146.807 115.024 142.934 118.891C139.062 122.759 133.814 124.933 128.342 124.938ZM20.6585 4.87041C16.4727 4.8752 12.4597 6.54012 9.49992 9.49992C6.54011 12.4597 4.8752 16.4727 4.8704 20.6585V104.306C4.8752 108.492 6.54011 112.505 9.49992 115.465C12.4597 118.425 16.4727 120.09 20.6585 120.094H128.387C132.565 120.078 136.566 118.407 139.516 115.449C142.466 112.49 144.125 108.484 144.13 104.306V20.6585C144.125 16.4727 142.46 12.4597 139.5 9.49992C136.54 6.54012 132.527 4.8752 128.342 4.87041H20.6585Z" fill="url(#paint2_linear_80_224)"/>
<defs>
<linearGradient id="paint0_linear_80_224" x1="72.2504" y1="88.5181" x2="58.7165" y2="55.5388" gradientUnits="userSpaceOnUse">
<stop stop-color="#B7926D"/>
<stop offset="0.26" stop-color="#BE9973"/>
<stop offset="0.63" stop-color="#D1AC85"/>
<stop offset="1" stop-color="#EBC59D"/>
</linearGradient>
<linearGradient id="paint1_linear_80_224" x1="45.1464" y1="63.3423" x2="120.212" y2="61.6313" gradientUnits="userSpaceOnUse">
<stop stop-color="#B7926D"/>
<stop offset="0.51" stop-color="#B9946F"/>
<stop offset="0.7" stop-color="#C09A75"/>
<stop offset="0.83" stop-color="#CBA680"/>
<stop offset="0.93" stop-color="#DCB68F"/>
<stop offset="1" stop-color="#EBC59D"/>
</linearGradient>
<linearGradient id="paint2_linear_80_224" x1="186.189" y1="149.018" x2="1.26739" y2="5.72135" gradientUnits="userSpaceOnUse">
<stop stop-color="#B7926D"/>
<stop offset="0.51" stop-color="#B9946F"/>
<stop offset="0.7" stop-color="#C09A75"/>
<stop offset="0.83" stop-color="#CBA680"/>
<stop offset="0.93" stop-color="#DCB68F"/>
<stop offset="1" stop-color="#EBC59D"/>
</linearGradient>
</defs>
</svg>
