<svg width="340" height="92" viewBox="0 0 340 92" fill="none" xmlns="http://www.w3.org/2000/svg">
<g clip-path="url(#clip0_46_329)">
<path d="M78.3303 62.931H73.9624L65.115 40.5953L64.1719 38.188L62.931 35.0672L62.2547 33.3547L60.319 28.5029L58.135 34.0124L55.9573 39.5343L43.4555 71.1084H39.0876L53.7733 34.031L55.9573 28.5029L56.0566 28.2609L57.6697 24.1971H62.9931L64.4387 27.8701L64.6 28.2609L65.115 29.5453L67.2927 35.0672L78.3303 62.931Z" fill="#3F3F58"/>
<path d="M60.4617 50.3237L55.3244 63.3157L53.854 67.0507L53.7113 67.3982L53.6927 67.4354L52.2409 71.1084H47.8792L49.3248 67.4354L49.3496 67.3982L49.4923 67.0507L50.9566 63.3157L58.2777 44.8204L60.4617 50.3237Z" fill="#3F3F58"/>
<path d="M62.6642 44.8018L62.6456 44.8204L60.4617 50.3237L58.2777 44.8204L60.4617 39.2923L60.4803 39.2737L62.3788 44.1069L62.6642 44.8018Z" fill="#F0E8E5"/>
<path d="M69.9481 63.235H65.5803L60.4617 50.3237L58.2777 44.8204L60.4617 39.2923L62.6456 44.8204L69.9481 63.235Z" fill="url(#paint0_linear_46_329)"/>
<path d="M98.6062 58.3336C98.6087 61.2775 97.584 64.13 95.7087 66.3993C95.5581 66.5923 95.3943 66.7747 95.2186 66.9453C95.2186 66.9453 95.2186 66.9887 95.1814 67.0073C93.9896 68.294 92.5439 69.3194 90.9356 70.0189C89.3273 70.7184 87.5914 71.0767 85.8376 71.0712H52.2471L53.6989 67.3982V67.3547L53.8416 67.0073H85.8438C86.1365 67.0083 86.4289 66.9875 86.7186 66.9453C88.0395 66.8164 89.3125 66.3829 90.4375 65.6788C91.5625 64.9747 92.5089 64.0193 93.2022 62.8876C94.0662 61.5219 94.5205 59.9372 94.5113 58.3212C94.5113 56.0175 93.5962 53.8081 91.9672 52.1791C90.3382 50.5502 88.1289 49.635 85.8252 49.635H77.4368L75.8237 45.5712H85.8624C88.1661 45.5712 90.3755 44.656 92.0044 43.0271C93.6334 41.3981 94.5485 39.1887 94.5485 36.885C94.5485 34.5813 93.6334 32.372 92.0044 30.743C90.3755 29.114 88.1661 28.1989 85.8624 28.1989H68.9741L68.8066 27.808L67.3609 24.2095H85.8376C86.9038 24.2132 87.9658 24.3423 89.0018 24.5942C91.4036 25.2108 93.5736 26.5141 95.2463 28.3446C96.9191 30.1751 98.0221 32.4534 98.4203 34.9009C98.8186 37.3484 98.4949 39.8589 97.4888 42.1253C96.4827 44.3917 94.8378 46.3157 92.7555 47.662C94.5421 48.813 96.0131 50.3919 97.0348 52.2555C98.0565 54.1191 98.5966 56.2083 98.6062 58.3336Z" fill="url(#paint1_linear_46_329)"/>
<path d="M121.621 71.8248C120.173 71.8248 118.852 71.484 117.659 70.8023C116.509 70.0781 115.572 69.1408 114.847 67.9905C114.166 66.7976 113.825 65.4982 113.825 64.0923V63.0698H119.129V64.0923C119.129 64.774 119.363 65.3704 119.832 65.8816C120.343 66.3503 120.94 66.5846 121.621 66.5846H152.615C153.297 66.5846 153.872 66.3503 154.341 65.8816C154.852 65.3704 155.108 64.774 155.108 64.0923V53.4201C155.108 52.7385 154.852 52.1633 154.341 51.6947C153.872 51.1835 153.297 50.9278 152.615 50.9278H122.644V45.6876H150.57C151.252 45.6876 151.827 45.4533 152.296 44.9847C152.807 44.4734 153.063 43.877 153.063 43.1953V33.5457C153.063 32.864 152.807 32.2889 152.296 31.8202C151.827 31.309 151.252 31.0534 150.57 31.0534H121.621C120.94 31.0534 120.343 31.309 119.832 31.8202C119.363 32.2889 119.129 32.864 119.129 33.5457V35.2072H113.825V33.5457C113.825 32.0971 114.166 30.7977 114.847 29.6474C115.572 28.4546 116.509 27.5173 117.659 26.8356C118.852 26.1114 120.173 25.7492 121.621 25.7492H150.57C152.019 25.7492 153.318 26.1114 154.469 26.8356C155.661 27.5173 156.599 28.4546 157.28 29.6474C157.962 30.7977 158.303 32.0971 158.303 33.5457V43.1953C158.303 43.7918 158.218 44.3882 158.047 44.9847C157.919 45.5385 157.749 46.0498 157.536 46.5184C158.601 47.5409 159.325 48.6699 159.709 49.9054C160.135 51.1409 160.348 52.3125 160.348 53.4201V64.0923C160.348 65.4982 159.986 66.7976 159.261 67.9905C158.58 69.1408 157.643 70.0781 156.45 70.8023C155.299 71.484 154.021 71.8248 152.615 71.8248H121.621ZM174.61 71.8248C173.161 71.8248 171.84 71.484 170.648 70.8023C169.497 70.0781 168.581 69.1408 167.9 67.9905C167.218 66.7976 166.877 65.4982 166.877 64.0923V33.5457C166.877 32.0971 167.218 30.7977 167.9 29.6474C168.581 28.4546 169.497 27.5173 170.648 26.8356C171.84 26.1114 173.161 25.7492 174.61 25.7492H205.284V31.0534H174.61C173.928 31.0534 173.332 31.309 172.82 31.8202C172.352 32.2889 172.117 32.864 172.117 33.5457V42.748C172.117 43.4296 172.352 44.0261 172.82 44.5373C173.332 45.0486 173.928 45.3042 174.61 45.3042H205.604C207.01 45.3042 208.288 45.645 209.438 46.3267C210.631 47.0083 211.568 47.9456 212.25 49.1385C212.974 50.2888 213.336 51.5882 213.336 53.0367V64.0923C213.336 65.4982 212.974 66.7976 212.25 67.9905C211.568 69.1408 210.631 70.0781 209.438 70.8023C208.288 71.484 207.01 71.8248 205.604 71.8248H174.61ZM174.61 66.5846H205.604C206.285 66.5846 206.86 66.3503 207.329 65.8816C207.84 65.3704 208.096 64.774 208.096 64.0923V53.0367C208.096 52.3551 207.84 51.7799 207.329 51.3113C206.86 50.8 206.285 50.5444 205.604 50.5444H172.117V64.0923C172.117 64.774 172.352 65.3704 172.82 65.8816C173.332 66.3503 173.928 66.5846 174.61 66.5846ZM227.032 71.8248C225.583 71.8248 224.263 71.484 223.07 70.8023C221.919 70.0781 221.003 69.1408 220.322 67.9905C219.64 66.7976 219.299 65.4982 219.299 64.0923V33.6096C219.299 32.161 219.64 30.8616 220.322 29.7113C221.003 28.5185 221.919 27.5812 223.07 26.8995C224.263 26.1753 225.583 25.8131 227.032 25.8131H258.026C259.432 25.8131 260.71 26.1753 261.86 26.8995C263.053 27.5812 263.99 28.5185 264.672 29.7113C265.396 30.8616 265.758 32.161 265.758 33.6096V64.0923C265.758 65.4982 265.396 66.7976 264.672 67.9905C263.99 69.1408 263.053 70.0781 261.86 70.8023C260.71 71.484 259.432 71.8248 258.026 71.8248H227.032ZM225.179 66.5846H258.026C258.707 66.5846 259.283 66.3503 259.751 65.8816C260.262 65.3704 260.518 64.774 260.518 64.0923V37.4439L225.179 66.5846ZM224.54 60.258L259.815 31.1173H227.032C226.35 31.1173 225.754 31.3729 225.242 31.8841C224.774 32.3528 224.54 32.9279 224.54 33.6096V60.258ZM279.625 46.1989C278.176 46.1989 276.856 45.858 275.663 45.1764C274.512 44.4521 273.575 43.5149 272.851 42.3646C272.169 41.1717 271.828 39.8723 271.828 38.4664V33.0983C271.828 31.6498 272.169 30.3504 272.851 29.2001C273.575 28.0072 274.512 27.0699 275.663 26.3883C276.856 25.664 278.176 25.3019 279.625 25.3019H285.632C287.08 25.3019 288.38 25.664 289.53 26.3883C290.723 27.0699 291.66 28.0072 292.342 29.2001C293.066 30.3504 293.428 31.6498 293.428 33.0983V38.4664C293.428 39.8723 293.066 41.1717 292.342 42.3646C291.66 43.5149 290.723 44.4521 289.53 45.1764C288.38 45.858 287.08 46.1989 285.632 46.1989H279.625ZM278.219 42.3007H287.038C287.719 42.3007 288.295 42.0663 288.763 41.5977C289.274 41.0865 289.53 40.49 289.53 39.8084V31.7563C289.53 31.0747 289.274 30.4995 288.763 30.0309C288.295 29.5196 287.719 29.264 287.038 29.264H278.219C277.537 29.264 276.941 29.5196 276.429 30.0309C275.961 30.4995 275.727 31.0747 275.727 31.7563V39.8084C275.727 40.49 275.961 41.0865 276.429 41.5977C276.941 42.0663 277.537 42.3007 278.219 42.3007Z" fill="#D6B089"/>
</g>
<defs>
<linearGradient id="paint0_linear_46_329" x1="68.8686" y1="65.5058" x2="59.593" y2="42.9033" gradientUnits="userSpaceOnUse">
<stop stop-color="#B7926D"/>
<stop offset="0.26" stop-color="#BE9973"/>
<stop offset="0.63" stop-color="#D1AC85"/>
<stop offset="1" stop-color="#EBC59D"/>
</linearGradient>
<linearGradient id="paint1_linear_46_329" x1="50.2927" y1="48.2515" x2="101.739" y2="47.0788" gradientUnits="userSpaceOnUse">
<stop stop-color="#B7926D"/>
<stop offset="0.51" stop-color="#B9946F"/>
<stop offset="0.7" stop-color="#C09A75"/>
<stop offset="0.83" stop-color="#CBA680"/>
<stop offset="0.93" stop-color="#DCB68F"/>
<stop offset="1" stop-color="#EBC59D"/>
</linearGradient>
<clipPath id="clip0_46_329">
<rect width="340" height="91.8248" fill="white"/>
</clipPath>
</defs>
</svg>
