<svg width="27" height="35" viewBox="0 0 27 35" fill="#585887" xmlns="http://www.w3.org/2000/svg">
<path d="M14.7956 34H14.0665C9.82244 34 5.86415 31.8337 3.53829 28.2382L1.74999 25.4737C0.480825 23.5117 0.855558 20.8991 2.62347 19.384L4.48675 17.7872C4.69927 17.605 4.82177 17.3374 4.82177 17.0554V3.68125C4.82177 2.20043 6.00702 1 7.46905 1C8.93108 1 10.1163 2.20043 10.1163 3.68125V11.1062C10.1163 9.62546 11.3016 8.425 12.7636 8.425C14.2256 8.425 15.4109 9.62546 15.4109 11.1062V12.3438C15.4109 10.863 16.5961 9.6625 18.0582 9.6625C19.5202 9.6625 20.7054 10.863 20.7054 12.3438V15.6438C20.7054 14.163 21.8907 12.9625 23.3527 12.9625C24.8148 12.9625 26 14.163 26 15.6438V24.0743C26 25.4346 25.5942 26.7633 24.8358 27.8859L24.0426 29.0599C21.9542 32.1514 18.494 34 14.7956 34Z" fill="#585887" stroke="#585887" stroke-width="2" stroke-linecap="round" stroke-linejoin="round"/>
</svg>
