<svg width="42" height="42" viewBox="0 0 42 42" fill="none" xmlns="http://www.w3.org/2000/svg">
<path d="M21 29.0295C25.4345 29.0295 29.0294 25.4346 29.0294 21.0001C29.0294 16.5656 25.4345 12.9707 21 12.9707C16.5655 12.9707 12.9706 16.5656 12.9706 21.0001C12.9706 25.4346 16.5655 29.0295 21 29.0295Z" fill="#2F88FF" stroke="black" stroke-width="2" stroke-linejoin="round"/>
<path d="M21 9.88242C21.8528 9.88242 22.5441 9.1911 22.5441 8.33831C22.5441 7.48552 21.8528 6.79419 21 6.79419C20.1472 6.79419 19.4559 7.48552 19.4559 8.33831C19.4559 9.1911 20.1472 9.88242 21 9.88242Z" fill="black"/>
<path d="M29.9559 13.5882C30.8087 13.5882 31.5 12.8969 31.5 12.0441C31.5 11.1913 30.8087 10.5 29.9559 10.5C29.1031 10.5 28.4118 11.1913 28.4118 12.0441C28.4118 12.8969 29.1031 13.5882 29.9559 13.5882Z" fill="black"/>
<path d="M33.6618 22.5443C34.5145 22.5443 35.2059 21.853 35.2059 21.0002C35.2059 20.1474 34.5145 19.4561 33.6618 19.4561C32.809 19.4561 32.1176 20.1474 32.1176 21.0002C32.1176 21.853 32.809 22.5443 33.6618 22.5443Z" fill="black"/>
<path d="M29.9559 31.5001C30.8087 31.5001 31.5 30.8088 31.5 29.956C31.5 29.1032 30.8087 28.4119 29.9559 28.4119C29.1031 28.4119 28.4118 29.1032 28.4118 29.956C28.4118 30.8088 29.1031 31.5001 29.9559 31.5001Z" fill="black"/>
<path d="M21 35.2059C21.8528 35.2059 22.5441 34.5146 22.5441 33.6618C22.5441 32.809 21.8528 32.1177 21 32.1177C20.1472 32.1177 19.4559 32.809 19.4559 33.6618C19.4559 34.5146 20.1472 35.2059 21 35.2059Z" fill="black"/>
<path d="M12.0441 31.5001C12.8969 31.5001 13.5882 30.8088 13.5882 29.956C13.5882 29.1032 12.8969 28.4119 12.0441 28.4119C11.1913 28.4119 10.5 29.1032 10.5 29.956C10.5 30.8088 11.1913 31.5001 12.0441 31.5001Z" fill="black"/>
<path d="M8.33825 22.5443C9.19104 22.5443 9.88236 21.853 9.88236 21.0002C9.88236 20.1474 9.19104 19.4561 8.33825 19.4561C7.48545 19.4561 6.79413 20.1474 6.79413 21.0002C6.79413 21.853 7.48545 22.5443 8.33825 22.5443Z" fill="black"/>
<path d="M12.0441 13.5882C12.8969 13.5882 13.5882 12.8969 13.5882 12.0441C13.5882 11.1913 12.8969 10.5 12.0441 10.5C11.1913 10.5 10.5 11.1913 10.5 12.0441C10.5 12.8969 11.1913 13.5882 12.0441 13.5882Z" fill="black"/>
</svg>
