<svg width="36" height="36" viewBox="0 0 36 36" fill="none" xmlns="http://www.w3.org/2000/svg">
<path d="M24.2222 4C26.285 4 28.2633 4.81944 29.7219 6.27806C31.1806 7.73667 32 9.71498 32 11.7778V24.2222C32 26.285 31.1806 28.2633 29.7219 29.7219C28.2633 31.1806 26.285 32 24.2222 32H11.7778C9.71498 32 7.73667 31.1806 6.27806 29.7219C4.81944 28.2633 4 26.285 4 24.2222V11.7778C4 9.71498 4.81944 7.73667 6.27806 6.27806C7.73667 4.81944 9.71498 4 11.7778 4H24.2222ZM18 11.7778C16.3498 11.7778 14.7671 12.4333 13.6002 13.6002C12.4333 14.7671 11.7778 16.3498 11.7778 18C11.7778 19.6502 12.4333 21.2329 13.6002 22.3998C14.7671 23.5667 16.3498 24.2222 18 24.2222C19.6502 24.2222 21.2329 23.5667 22.3998 22.3998C23.5667 21.2329 24.2222 19.6502 24.2222 18C24.2222 16.3498 23.5667 14.7671 22.3998 13.6002C21.2329 12.4333 19.6502 11.7778 18 11.7778ZM18 14.8889C18.8251 14.8889 19.6164 15.2167 20.1999 15.8001C20.7833 16.3836 21.1111 17.1749 21.1111 18C21.1111 18.8251 20.7833 19.6164 20.1999 20.1999C19.6164 20.7833 18.8251 21.1111 18 21.1111C17.1749 21.1111 16.3836 20.7833 15.8001 20.1999C15.2167 19.6164 14.8889 18.8251 14.8889 18C14.8889 17.1749 15.2167 16.3836 15.8001 15.8001C16.3836 15.2167 17.1749 14.8889 18 14.8889ZM25 9.44444C24.5874 9.44444 24.1918 9.60833 23.9001 9.90006C23.6083 10.1918 23.4444 10.5874 23.4444 11C23.4444 11.4126 23.6083 11.8082 23.9001 12.0999C24.1918 12.3917 24.5874 12.5556 25 12.5556C25.4126 12.5556 25.8082 12.3917 26.0999 12.0999C26.3917 11.8082 26.5556 11.4126 26.5556 11C26.5556 10.5874 26.3917 10.1918 26.0999 9.90006C25.8082 9.60833 25.4126 9.44444 25 9.44444Z" fill="#F0E8E5"/>
</svg>
