<svg width="34" height="34" viewBox="0 0 34 34" fill="none" xmlns="http://www.w3.org/2000/svg">
<path d="M28.9993 2.83369H5.00096C4.73119 2.82995 4.46333 2.87938 4.21268 2.97916C3.96202 3.07895 3.73347 3.22713 3.54009 3.41525C3.3467 3.60337 3.19227 3.82775 3.08561 4.07556C2.97895 4.32337 2.92215 4.58976 2.91846 4.85953V29.1412C2.92215 29.411 2.97895 29.6774 3.08561 29.9252C3.19227 30.173 3.3467 30.3973 3.54009 30.5855C3.73347 30.7736 3.96202 30.9218 4.21268 31.0216C4.46333 31.1213 4.73119 31.1708 5.00096 31.167H28.9993C29.2691 31.1708 29.5369 31.1213 29.7876 31.0216C30.0382 30.9218 30.2668 30.7736 30.4602 30.5855C30.6535 30.3973 30.808 30.173 30.9146 29.9252C31.0213 29.6774 31.0781 29.411 31.0818 29.1412V4.85953C31.0781 4.58976 31.0213 4.32337 30.9146 4.07556C30.808 3.82775 30.6535 3.60337 30.4602 3.41525C30.2668 3.22713 30.0382 3.07895 29.7876 2.97916C29.5369 2.87938 29.2691 2.82995 28.9993 2.83369ZM11.461 26.5487H7.21096V13.7987H11.461V26.5487ZM9.33596 12.0137C8.74983 12.0137 8.18771 11.7809 7.77325 11.3664C7.3588 10.9519 7.12596 10.3898 7.12596 9.80369C7.12596 9.21757 7.3588 8.65544 7.77325 8.24099C8.18771 7.82653 8.74983 7.59369 9.33596 7.59369C9.64719 7.5584 9.96237 7.58924 10.2609 7.6842C10.5594 7.77915 10.8344 7.93609 11.0681 8.14472C11.3017 8.35336 11.4886 8.60899 11.6166 8.89488C11.7446 9.18076 11.8108 9.49046 11.8108 9.80369C11.8108 10.1169 11.7446 10.4266 11.6166 10.7125C11.4886 10.9984 11.3017 11.254 11.0681 11.4627C10.8344 11.6713 10.5594 11.8282 10.2609 11.9232C9.96237 12.0182 9.64719 12.049 9.33596 12.0137ZM26.7893 26.5487H22.5393V19.7062C22.5393 17.992 21.9301 16.8729 20.386 16.8729C19.9081 16.8764 19.4427 17.0263 19.0526 17.3024C18.6626 17.5785 18.3665 17.9675 18.2043 18.417C18.0934 18.75 18.0454 19.1007 18.0626 19.4512V26.5345H13.8126V13.7845H18.0626V15.5837C18.4487 14.9138 19.0102 14.3618 19.6867 13.9874C20.3633 13.6129 21.1291 13.4302 21.9018 13.4587C24.7351 13.4587 26.7893 15.2862 26.7893 19.2104V26.5487Z" fill="#F0E8E5"/>
</svg>
