<svg width="60" height="48" viewBox="0 0 60 48" fill="none" xmlns="http://www.w3.org/2000/svg">
<path d="M39.3303 38.931H34.9624L26.115 16.5953L25.1719 14.188L23.931 11.0672L23.2547 9.35474L21.319 4.50292L19.135 10.0124L16.9573 15.5343L4.45546 47.1084H0.0875854L14.7733 10.031L16.9573 4.50292L17.0566 4.26095L18.6697 0.197083H23.9931L25.4387 3.87007L25.6 4.26095L26.115 5.54525L28.2927 11.0672L39.3303 38.931Z" fill="#3F3F58"/>
<path d="M21.4617 26.3237L16.3244 39.3157L14.854 43.0507L14.7113 43.3982L14.6927 43.4354L13.2409 47.1084H8.87919L10.3248 43.4354L10.3496 43.3982L10.4923 43.0507L11.9566 39.3157L19.2777 20.8204L21.4617 26.3237Z" fill="#3F3F58"/>
<path d="M23.6642 20.8018L23.6456 20.8204L21.4617 26.3237L19.2777 20.8204L21.4617 15.2923L21.4803 15.2737L23.3788 20.1069L23.6642 20.8018Z" fill="#F0E8E5"/>
<path d="M30.9481 39.235H26.5803L21.4617 26.3237L19.2777 20.8204L21.4617 15.2923L23.6456 20.8204L30.9481 39.235Z" fill="url(#paint0_linear_46_330)"/>
<path d="M59.6062 34.3336C59.6087 37.2775 58.584 40.13 56.7087 42.3993C56.5581 42.5923 56.3943 42.7747 56.2186 42.9453C56.2186 42.9453 56.2186 42.9887 56.1814 43.0073C54.9896 44.294 53.5439 45.3194 51.9356 46.0189C50.3273 46.7184 48.5914 47.0767 46.8376 47.0712H13.2471L14.6989 43.3982V43.3547L14.8416 43.0073H46.8438C47.1365 43.0083 47.4289 42.9875 47.7186 42.9453C49.0395 42.8164 50.3125 42.3829 51.4375 41.6788C52.5625 40.9747 53.5089 40.0193 54.2022 38.8876C55.0662 37.5219 55.5205 35.9372 55.5113 34.3212C55.5113 32.0175 54.5962 29.8081 52.9672 28.1791C51.3382 26.5502 49.1289 25.635 46.8252 25.635H38.4368L36.8237 21.5712H46.8624C49.1661 21.5712 51.3755 20.656 53.0044 19.0271C54.6334 17.3981 55.5485 15.1887 55.5485 12.885C55.5485 10.5813 54.6334 8.37197 53.0044 6.74301C51.3755 5.11404 49.1661 4.1989 46.8624 4.1989H29.9741L29.8066 3.80803L28.3609 0.209484H46.8376C47.9038 0.213176 48.9658 0.342289 50.0018 0.594157C52.4036 1.21078 54.5736 2.51406 56.2463 4.34456C57.9191 6.17506 59.0221 8.45341 59.4203 10.9009C59.8186 13.3484 59.4949 15.8589 58.4888 18.1253C57.4827 20.3917 55.8378 22.3157 53.7555 23.662C55.5421 24.813 57.0131 26.3919 58.0348 28.2555C59.0565 30.1191 59.5966 32.2083 59.6062 34.3336Z" fill="url(#paint1_linear_46_330)"/>
<defs>
<linearGradient id="paint0_linear_46_330" x1="29.8686" y1="41.5058" x2="20.593" y2="18.9033" gradientUnits="userSpaceOnUse">
<stop stop-color="#B7926D"/>
<stop offset="0.26" stop-color="#BE9973"/>
<stop offset="0.63" stop-color="#D1AC85"/>
<stop offset="1" stop-color="#EBC59D"/>
</linearGradient>
<linearGradient id="paint1_linear_46_330" x1="11.2927" y1="24.2515" x2="62.7394" y2="23.0788" gradientUnits="userSpaceOnUse">
<stop stop-color="#B7926D"/>
<stop offset="0.51" stop-color="#B9946F"/>
<stop offset="0.7" stop-color="#C09A75"/>
<stop offset="0.83" stop-color="#CBA680"/>
<stop offset="0.93" stop-color="#DCB68F"/>
<stop offset="1" stop-color="#EBC59D"/>
</linearGradient>
</defs>
</svg>
