<svg width="756" height="982" viewBox="0 0 756 982" fill="none" xmlns="http://www.w3.org/2000/svg">
<path d="M245.347 1062L249.106 1057.87C363.593 931.761 489.432 817.06 623.136 716.981L626.896 714.161L627.094 718.862C631.867 834.255 623.557 949.031 602.41 1060L602.015 1062H245.347Z" fill="#3F3F58"/>
<path d="M477.116 0H755.975V274.728L755.208 275.471C716.18 312.731 676.287 343.114 636.69 365.727L634.291 367.113L477.116 0Z" fill="#F0E8E5"/>
<path d="M746.824 629.891L756 623.879V639.268L751.251 640.233L746.824 629.891Z" fill="black"/>
<path d="M632.337 362.511L634.242 361.422C673.492 338.982 713.064 308.872 751.795 271.883L755.975 267.9V629.817L751.251 632.91L748.778 634.543L632.337 362.511Z" fill="#CBA47D"/>
<path d="M450.083 418.55C440.61 418.55 430.989 418.13 421.517 417.338C270.574 404.497 128.955 320.723 0.618314 168.365L0.0247574 167.673V0.0247803H482.507L638.619 364.664L636.715 365.752C575.353 400.761 512.557 418.55 450.083 418.55Z" fill="url(#paint0_linear_84_304)"/>
<path d="M596.97 1062L597.538 1059.06C618.611 948.461 626.896 834.057 622.148 719.059L622.098 717.748L623.137 716.956C664.068 686.329 705.892 656.915 748.556 628.753L751.029 627.12L756 638.748V1061.97H596.97V1062Z" fill="#CBA47D"/>
<path d="M0 1062V708.817L600.58 487.158L601.125 490.053C615.222 566.529 623.953 643.499 627.069 718.837L627.118 720.148L626.08 720.94C492.623 820.846 367.006 935.324 252.742 1061.18L252 1062H0Z" fill="#F0E8E5"/>
<path d="M622.147 719.034C619.08 644.884 610.548 569.126 596.796 493.838L0 714.086V159.978L4.35295 165.149C131.824 316.467 272.305 399.647 421.888 412.389C431.237 413.181 440.709 413.577 450.058 413.577C511.667 413.577 573.622 396.035 634.241 361.397L636.64 360.012L752.958 631.722L751.226 632.86C708.641 660.958 666.899 690.315 626.055 720.89L622.295 723.71L622.147 719.034Z" fill="#3F3F58"/>
<defs>
<linearGradient id="paint0_linear_84_304" x1="319.322" y1="0.0247803" x2="319.322" y2="418.55" gradientUnits="userSpaceOnUse">
<stop stop-color="#E4BB90"/>
<stop offset="1" stop-color="#B7926D"/>
</linearGradient>
</defs>
</svg>
