<svg width="37" height="37" viewBox="0 0 37 37" fill="none" xmlns="http://www.w3.org/2000/svg">
<g clip-path="url(#clip0_46_371)">
<path d="M33.5072 0L18.5004 15.008L3.49232 0H0V3.49232L15.008 18.5004L0 33.5072V36.9995H3.49232L18.5004 21.9926L33.5072 36.9995H36.9995V33.5072L21.9926 18.5004L36.9995 3.49232V0H33.5072Z" fill="#595656"/>
<path d="M21.7343 0L18.5 3.23535L15.2647 0H8.51978L18.5 9.97915L28.4791 0H21.7343Z" fill="#595656"/>
<path d="M8.51978 36.9991H15.2647L18.5 33.7649L21.7343 36.9991H28.4791L18.5 27.02L8.51978 36.9991Z" fill="#595656"/>
<path d="M33.7657 18.5L37 15.2647V8.51978L27.0209 18.5L37 28.4791V21.7343L33.7657 18.5Z" fill="#595656"/>
<path d="M0 15.2647L3.23535 18.5L0 21.7343V28.4791L9.97915 18.5L0 8.51978V15.2647Z" fill="#595656"/>
</g>
<defs>
<clipPath id="clip0_46_371">
<rect width="37" height="37" fill="white"/>
</clipPath>
</defs>
</svg>
