<svg width="30" height="34" viewBox="0 0 30 34" fill="none" xmlns="http://www.w3.org/2000/svg">
<g clip-path="url(#clip0_82_257)">
<path d="M4.28559 2.125C1.92175 2.125 -0.00012207 4.03086 -0.00012207 6.375V27.625C-0.00012207 29.9691 1.92175 31.875 4.28559 31.875H25.7142C28.078 31.875 29.9999 29.9691 29.9999 27.625V6.375C29.9999 4.03086 28.078 2.125 25.7142 2.125H4.28559ZM24.1807 7.70313L17.2298 15.5789L25.4061 26.2969H19.0043L13.9954 19.7957L8.25657 26.2969H5.07577L12.5088 17.8699L4.66729 7.70313H11.2298L15.7633 13.6465L20.9999 7.70313H24.1807ZM21.6494 24.4109L10.2722 9.48945H8.37711L19.8816 24.4109H21.6427H21.6494Z" fill="#F0E8E5"/>
</g>
<defs>
<clipPath id="clip0_82_257">
<rect width="30" height="34" fill="white"/>
</clipPath>
</defs>
</svg>
